<svg width="18" height="20" viewBox="0 0 18 20" fill="none" xmlns="http://www.w3.org/2000/svg">
<path d="M9 17.2321C9.32359 17.2321 9.58594 16.9698 9.58594 16.6462V8.77863C9.58594 8.45503 9.32359 8.19269 9 8.19269C8.67641 8.19269 8.41406 8.45503 8.41406 8.77863V16.6462C8.41406 16.9698 8.67641 17.2321 9 17.2321Z" fill="#613D2B"/>
<path d="M5.77385 16.7012C5.80432 17.024 6.09084 17.26 6.41229 17.2295C6.73447 17.1991 6.97096 16.9132 6.94053 16.591L6.19764 8.72351C6.16721 8.40136 5.8819 8.1648 5.5592 8.19527C5.23701 8.2257 5.00053 8.51152 5.03096 8.83371L5.77385 16.7012Z" fill="#613D2B"/>
<path d="M11.5875 17.2295C11.9093 17.2599 12.1955 17.0237 12.226 16.7013L12.9688 8.83373C12.9993 8.51154 12.7628 8.22572 12.4406 8.19529C12.1179 8.16467 11.8326 8.40139 11.8022 8.72354L11.0593 16.5911C11.0288 16.9132 11.2654 17.1991 11.5875 17.2295Z" fill="#613D2B"/>
<path d="M1.25171 6.59668H1.60198L3.29917 19.4905C3.33753 19.7821 3.58604 20 3.88011 20H14.1198C14.4138 20 14.6623 19.7821 14.7007 19.4905L16.3979 6.59668H16.7481C17.0717 6.59668 17.3341 6.33434 17.3341 6.01074V3.44711C17.3341 3.12352 17.0717 2.86117 16.7481 2.86117H11.7342V2.63027C11.7342 1.17996 10.5542 0 9.10393 0H8.89593C7.44561 0 6.26565 1.17996 6.26565 2.63027V2.86117H1.25171C0.928115 2.86117 0.665771 3.12352 0.665771 3.44711V6.01074C0.665771 6.33434 0.928076 6.59668 1.25171 6.59668ZM13.6059 18.8281H4.39393L2.78397 6.59668H15.2159L13.6059 18.8281ZM7.43749 2.63027C7.43749 1.82613 8.09175 1.17188 8.89589 1.17188H9.10389C9.90803 1.17188 10.5623 1.82613 10.5623 2.63027V2.86117H7.43749V2.63027ZM1.83765 4.03305H16.1622V5.4248C16.0369 5.4248 1.9939 5.4248 1.83765 5.4248V4.03305Z" fill="#613D2B"/>
</svg>
