<svg width="30" height="31" viewBox="0 0 30 31" fill="none" xmlns="http://www.w3.org/2000/svg">
<path d="M6.76501 6.08742V23.1257C6.75576 24.1968 6.39528 25.2203 5.76195 25.9738C5.12862 26.7273 4.27355 27.1499 3.38251 27.1499C2.49145 27.1499 1.63639 26.7273 1.00306 25.9738C0.369718 25.2203 0.00926658 24.1968 0 23.1257V6.08742C0.000582016 5.00908 0.357429 3.97517 0.992058 3.21307C1.62669 2.45097 2.48713 2.02311 3.38415 2.02357C3.94512 2.02178 4.49741 2.18966 4.99026 2.51177C4.99794 2.51573 5.00123 2.52056 5.00489 2.52056C5.00679 2.52307 5.00939 2.52464 5.01221 2.52496C5.29271 2.70894 5.54913 2.94161 5.77318 3.21547C6.08767 3.59209 6.33715 4.03968 6.50738 4.53253C6.67758 5.02538 6.76512 5.5538 6.76501 6.08742Z" fill="white"/>
<path d="M14.4951 9.76869V26.8026C14.4951 27.3366 14.4076 27.8653 14.2376 28.3586C14.0677 28.8519 13.8185 29.3001 13.5045 29.6777C13.1904 30.0553 12.8175 30.3548 12.4071 30.5591C11.9968 30.7635 11.557 30.8686 11.1128 30.8686C10.6686 30.8686 10.2288 30.7635 9.81844 30.5591C9.40806 30.3548 9.03522 30.0553 8.72113 29.6777C8.40704 29.3001 8.1579 28.8519 7.98792 28.3586C7.81794 27.8653 7.73047 27.3366 7.73047 26.8026V9.76869C7.73036 9.23441 7.81783 8.70532 7.98788 8.21172C8.1579 7.71807 8.40719 7.26955 8.72146 6.89176C9.03573 6.51396 9.40883 6.21427 9.81942 6.00989C10.2301 5.80547 10.6702 5.70031 11.1146 5.70044C11.2354 5.70044 11.3524 5.70924 11.4658 5.72199H11.4735C12.3034 5.83045 13.0707 6.30342 13.6283 7.05013C14.1859 7.79684 14.4946 8.76478 14.4951 9.76825V9.76869Z" fill="#EE4622"/>
<path d="M22.2695 4.92633V21.9646C22.2695 23.043 21.9132 24.0772 21.2789 24.8398C20.6446 25.6023 19.7842 26.0307 18.8872 26.0307C17.9902 26.0307 17.1299 25.6023 16.4955 24.8398C15.8612 24.0772 15.5049 23.043 15.5049 21.9646V4.92633C15.5049 4.39228 15.5924 3.86347 15.7626 3.37014C15.9327 2.8768 16.182 2.42861 16.4963 2.05119C16.8106 1.67377 17.1837 1.37452 17.5942 1.17055C18.0048 0.966581 18.4448 0.861893 18.889 0.862471C19.0286 0.860742 19.1681 0.872508 19.3061 0.897656H19.3134C20.0573 1.00585 20.7493 1.41172 21.2781 2.04996C21.5926 2.42745 21.842 2.87583 22.0122 3.3694C22.1823 3.86298 22.2698 4.39205 22.2695 4.92633Z" fill="white"/>
<path d="M30 9.5747V26.609C30 27.143 29.9125 27.6717 29.7425 28.165C29.5725 28.6584 29.3234 29.1066 29.0093 29.4842C28.6953 29.8617 28.3224 30.1612 27.912 30.3656C27.5017 30.5699 27.0618 30.6751 26.6177 30.6751C26.1735 30.6751 25.7337 30.5699 25.3233 30.3656C24.9129 30.1612 24.5401 29.8617 24.226 29.4842C23.9119 29.1066 23.6628 28.6584 23.4928 28.165C23.3228 27.6717 23.2354 27.143 23.2354 26.609V9.5747C23.2353 9.04041 23.3228 8.51141 23.4928 8.01776C23.6629 7.52416 23.9122 7.07564 24.2264 6.69789C24.5407 6.32009 24.9138 6.02045 25.3244 5.81602C25.735 5.6116 26.1751 5.5064 26.6195 5.50644C27.0671 5.50424 27.5103 5.61217 27.9219 5.82355H27.9256C27.9275 5.82605 27.9301 5.82764 27.9329 5.82794C28.3357 6.03026 28.7012 6.32621 29.0085 6.69877C29.3239 7.07534 29.574 7.5235 29.7442 8.01719C29.9144 8.51088 30.0014 9.04028 30 9.5747Z" fill="#EE4622"/>
<g style="mix-blend-mode:multiply" opacity="0.3">
<g style="mix-blend-mode:multiply" opacity="0.3">
<path d="M6.76501 10.9913V23.1257C6.75576 24.1968 6.39528 25.2202 5.76195 25.9737C5.12862 26.7272 4.27355 27.1499 3.38251 27.1499C2.49145 27.1499 1.63639 26.7272 1.00306 25.9737C0.369718 25.2202 0.00926658 24.1968 0 23.1257V22.4264C0 22.4264 0.0073176 22.5271 0.0219518 22.7118C0.0292689 22.9009 0.05122 23.1784 0.0881713 23.5167C0.150501 23.9197 0.258712 24.3106 0.409757 24.6782C0.676816 25.3312 1.09265 25.8795 1.60885 26.2595C2.12505 26.6395 2.7204 26.8354 3.32562 26.8245C3.60009 26.821 3.87305 26.7752 4.13781 26.6881C4.69713 26.4988 5.20143 26.1257 5.59391 25.6106C5.99584 25.0866 6.2605 24.4319 6.35489 23.7282C6.36221 23.6402 6.3805 23.5699 6.38416 23.4687L6.39916 23.1696C6.40611 23.0157 6.40245 22.7826 6.40611 22.5935C6.40611 22.1977 6.40977 21.7974 6.41343 21.406C6.41343 20.6187 6.43538 19.8447 6.44306 19.0926C6.46831 17.5928 6.50855 16.1938 6.55611 14.9936C6.64428 12.5922 6.76501 10.9913 6.76501 10.9913Z" fill="black"/>
</g>
</g>
<g style="mix-blend-mode:overlay" opacity="0.6">
<g style="mix-blend-mode:overlay" opacity="0.6">
<path d="M5.00525 2.52061C4.87805 2.47076 4.74857 2.42965 4.61745 2.39746C4.27943 2.30327 3.93235 2.2648 3.58574 2.28311C3.47674 2.288 3.3681 2.30122 3.26049 2.32269C3.14715 2.33944 3.03475 2.36441 2.92391 2.39746C2.16918 2.60267 1.49608 3.11355 1.01744 3.84444C0.850586 4.09022 0.710438 4.36053 0.600367 4.64885C0.495283 4.928 0.415556 5.21997 0.362562 5.51968C0.335648 5.67216 0.315981 5.82631 0.303658 5.98148L0.292683 6.10023C0.292683 6.10463 0.289025 6.1706 0.285366 6.20138C0.281707 6.28055 0.27805 6.35972 0.271098 6.43448C0.256098 6.74235 0.230488 7.03263 0.208537 7.30091C0.163961 7.89993 0.0943604 8.49592 0 9.08654V6.08703C0.000675506 5.38158 0.153928 4.6885 0.444714 4.07576C0.735499 3.46303 1.15382 2.95172 1.65863 2.59203C2.16343 2.23234 2.73736 2.03663 3.32408 2.02411C3.9108 2.01159 4.49013 2.18268 5.00525 2.52061Z" fill="white"/>
</g>
</g>
<g style="mix-blend-mode:multiply" opacity="0.3">
<g style="mix-blend-mode:multiply" opacity="0.3">
<path d="M14.4951 14.6545V26.8025C14.4951 27.3365 14.4076 27.8652 14.2376 28.3585C14.0677 28.8519 13.8185 29.3001 13.5045 29.6777C13.1904 30.0553 12.8175 30.3547 12.4071 30.5591C11.9968 30.7634 11.557 30.8686 11.1128 30.8686C10.6686 30.8686 10.2288 30.7634 9.81844 30.5591C9.40806 30.3547 9.03522 30.0553 8.72113 29.6777C8.40704 29.3001 8.1579 28.8519 7.98792 28.3585C7.81794 27.8652 7.73047 27.3365 7.73047 26.8025V26.31C7.73047 26.31 7.73779 26.4111 7.75242 26.5954C7.76537 26.8618 7.79596 27.1265 7.84388 27.387C8.0091 28.2927 8.42907 29.1021 9.03291 29.6789C9.42419 30.0493 9.88107 30.3066 10.3683 30.431C10.4928 30.4612 10.6186 30.4833 10.7451 30.497C10.8839 30.5084 11.0231 30.5114 11.1622 30.5058C11.4378 30.4876 11.7106 30.4298 11.9747 30.3338C12.522 30.118 13.01 29.7273 13.3866 29.2035C13.7728 28.6707 14.0197 28.0129 14.0963 27.3123C14.1179 27.1316 14.1301 26.9494 14.1329 26.7669L14.1366 26.1727C14.1366 25.7769 14.1402 25.3811 14.1443 24.9901C14.1443 24.2116 14.1658 23.4419 14.1735 22.6943C14.1988 21.2073 14.239 19.8179 14.2866 18.626C14.3744 16.2427 14.4951 14.6545 14.4951 14.6545Z" fill="black"/>
</g>
</g>
<g style="mix-blend-mode:overlay" opacity="0.6">
<g style="mix-blend-mode:overlay" opacity="0.6">
<path d="M11.4658 5.72199C11.4329 5.73123 11.3049 5.75322 11.1036 5.7884C10.9902 5.82359 10.8516 5.84998 10.7012 5.90275C10.5334 5.96164 10.3685 6.03197 10.2073 6.11342C10.0224 6.21172 9.84383 6.32656 9.67315 6.45692C9.48884 6.60368 9.31396 6.76685 9.14998 6.94511C8.98257 7.14025 8.83067 7.35373 8.69632 7.58283C8.55807 7.81523 8.44034 8.06434 8.3451 8.32611C8.25232 8.58824 8.18135 8.86079 8.13327 9.13976C8.10873 9.27923 8.09029 9.42019 8.07803 9.56198L8.05974 9.77265L8.05242 10.0018C8.02681 10.6043 7.98657 11.1669 7.93901 11.6511C7.89444 12.1934 7.82482 12.7322 7.73047 13.2652V9.76869C7.73036 9.23441 7.81783 8.70532 7.98788 8.21172C8.1579 7.71807 8.40719 7.26955 8.72146 6.89176C9.03573 6.51396 9.40883 6.21427 9.81942 6.00989C10.2301 5.80547 10.6702 5.70031 11.1146 5.70044C11.2354 5.70044 11.3524 5.70924 11.4658 5.72199Z" fill="white"/>
</g>
</g>
<g style="mix-blend-mode:multiply" opacity="0.3">
<g style="mix-blend-mode:multiply" opacity="0.3">
<path d="M22.2695 6.66803V21.9646C22.2695 23.043 21.9132 24.0773 21.2789 24.8398C20.6446 25.6023 19.7842 26.0307 18.8872 26.0307C17.9902 26.0307 17.1299 25.6023 16.4955 24.8398C15.8612 24.0773 15.5049 23.043 15.5049 21.9646V21.6216C15.5049 21.6216 15.5122 21.7316 15.5268 21.9383C15.5467 22.2342 15.5895 22.5272 15.6549 22.8135C15.7601 23.2497 15.9259 23.6614 16.1451 24.0313C16.4203 24.5037 16.7788 24.8972 17.1951 25.1836C17.6784 25.5209 18.2278 25.6972 18.7866 25.6943C19.0828 25.6983 19.3778 25.6478 19.6614 25.5447C19.9597 25.4452 20.2436 25.2909 20.5028 25.0873C21.0422 24.6615 21.4588 24.0454 21.6955 23.3237L21.7797 23.051L21.8382 22.7647C21.8601 22.6683 21.8638 22.576 21.8784 22.4836C21.8941 22.3836 21.9015 22.2819 21.9004 22.1801C21.9187 21.7843 21.9004 21.3049 21.904 20.8739C21.9077 19.9855 21.9114 19.0971 21.9187 18.2218C21.9187 17.3466 21.9406 16.489 21.9479 15.6578C21.9736 13.9909 22.0138 12.4383 22.0614 11.1057C22.1488 8.44043 22.2695 6.66803 22.2695 6.66803Z" fill="black"/>
</g>
</g>
<g style="mix-blend-mode:overlay" opacity="0.6">
<g style="mix-blend-mode:overlay" opacity="0.6">
<path d="M19.3061 0.897656C19.2585 0.906452 19.1378 0.928442 18.9585 0.954831C18.8488 0.963627 18.7061 1.02036 18.5524 1.05115C18.3839 1.10708 18.2178 1.17329 18.0549 1.2495C17.8679 1.34321 17.6869 1.45346 17.5134 1.57936C17.3242 1.71845 17.1456 1.87741 16.9796 2.05436C16.8915 2.14232 16.8146 2.24788 16.7345 2.34463C16.6613 2.45899 16.5768 2.5597 16.511 2.67889C16.368 2.90826 16.2465 3.15591 16.1488 3.41733C16.0478 3.6764 15.9705 3.94789 15.9183 4.22703C15.9037 4.36777 15.8671 4.47332 15.8561 4.64045L15.8378 4.86871L15.8342 4.92633V4.93072L15.8305 4.93468V4.96591L15.8268 5.08026C15.8012 5.6872 15.761 6.25016 15.7134 6.73395C15.669 7.27769 15.5993 7.81804 15.5049 8.35246V4.92633C15.5049 4.39228 15.5924 3.86347 15.7626 3.37014C15.9327 2.8768 16.182 2.42861 16.4963 2.05119C16.8106 1.67377 17.1837 1.37452 17.5942 1.17055C18.0048 0.966581 18.4448 0.861893 18.889 0.862471C19.0286 0.860742 19.1681 0.872508 19.3061 0.897656Z" fill="white"/>
</g>
</g>
<g style="mix-blend-mode:overlay" opacity="0.6">
<g style="mix-blend-mode:overlay" opacity="0.6">
<path d="M27.9219 5.82355C27.889 5.81431 27.7573 5.78352 27.5488 5.75318C27.428 5.73558 27.2817 5.72635 27.1171 5.72195C26.9336 5.72111 26.7503 5.73448 26.5683 5.76197C26.3582 5.79958 26.1504 5.8538 25.9463 5.92426C25.7264 6.00954 25.5133 6.11862 25.3097 6.25016C24.8747 6.53635 24.4966 6.93249 24.2012 7.41127C24.0501 7.65092 23.9225 7.91063 23.8207 8.18533C23.7227 8.45094 23.6479 8.72802 23.5975 9.01218C23.5702 9.15547 23.5518 9.301 23.5427 9.44759L23.5317 9.55754L23.528 9.57954L23.5244 9.59669L23.5207 9.6543C23.5171 9.72907 23.5134 9.79944 23.5097 9.87421C23.4915 10.1645 23.4695 10.4416 23.4439 10.6923C23.3995 11.2608 23.3299 11.826 23.2354 12.3855V9.5747C23.2353 9.04042 23.3228 8.51141 23.4928 8.01777C23.6629 7.52416 23.9122 7.07565 24.2264 6.69789C24.5407 6.32009 24.9138 6.02045 25.3244 5.81603C25.735 5.6116 26.1751 5.5064 26.6195 5.50644C27.0671 5.50424 27.5103 5.61217 27.9219 5.82355Z" fill="white"/>
</g>
</g>
<g style="mix-blend-mode:multiply" opacity="0.3">
<g style="mix-blend-mode:multiply" opacity="0.3">
<path d="M30 15.6842V26.6091C30 27.143 29.9125 27.6718 29.7425 28.1651C29.5725 28.6584 29.3234 29.1066 29.0093 29.4842C28.6953 29.8617 28.3224 30.1613 27.912 30.3656C27.5017 30.5699 27.0618 30.6751 26.6177 30.6751C26.1735 30.6751 25.7337 30.5699 25.3233 30.3656C24.9129 30.1613 24.5401 29.8617 24.226 29.4842C23.9119 29.1066 23.6628 28.6584 23.4928 28.1651C23.3228 27.6718 23.2354 27.143 23.2354 26.6091C23.2354 26.6091 23.2463 26.7014 23.2683 26.8774C23.2775 26.9816 23.2946 27.0847 23.3195 27.1852C23.3421 27.3244 23.3739 27.4611 23.4146 27.5943C23.6002 28.269 23.9324 28.8719 24.3769 29.3405C24.8214 29.8091 25.362 30.1263 25.9427 30.2595C26.0634 30.2859 26.1768 30.2947 26.2976 30.3123L26.5024 30.3167H26.6378L26.6854 30.3079C26.9434 30.2917 27.1988 30.2386 27.4463 30.1496C27.958 29.959 28.4204 29.6136 28.789 29.1464C28.9769 28.9063 29.1391 28.6391 29.272 28.3507C29.398 28.0584 29.4927 27.7481 29.5537 27.4271C29.5863 27.271 29.6095 27.1123 29.6232 26.9521L29.6378 26.6795V26.6091L29.6415 26.5603V26.4243C29.6415 26.0549 29.6451 25.685 29.6488 25.3204C29.6488 24.5947 29.6707 23.8735 29.678 23.183C29.7037 21.7931 29.7439 20.4957 29.7915 19.3874C29.8793 17.1615 30 15.6842 30 15.6842Z" fill="black"/>
</g>
</g>
</svg>
