<svg width="155" height="29" viewBox="0 0 155 29" fill="none" xmlns="http://www.w3.org/2000/svg">
<path d="M41.3595 11.112H45.7155C46.7355 11.112 47.6535 11.268 48.4695 11.58C49.2855 11.892 49.9815 12.336 50.5575 12.912C51.1335 13.476 51.5715 14.154 51.8715 14.946C52.1835 15.738 52.3395 16.608 52.3395 17.556C52.3395 18.516 52.1835 19.392 51.8715 20.184C51.5715 20.976 51.1335 21.654 50.5575 22.218C49.9815 22.782 49.2855 23.22 48.4695 23.532C47.6535 23.844 46.7355 24 45.7155 24H41.3595V11.112ZM45.6075 21.696C46.3155 21.696 46.9395 21.6 47.4795 21.408C48.0195 21.204 48.4695 20.922 48.8295 20.562C49.1895 20.202 49.4595 19.77 49.6395 19.266C49.8195 18.75 49.9095 18.18 49.9095 17.556C49.9095 16.932 49.8195 16.368 49.6395 15.864C49.4595 15.348 49.1895 14.91 48.8295 14.55C48.4695 14.19 48.0195 13.914 47.4795 13.722C46.9395 13.518 46.3155 13.416 45.6075 13.416H43.7895V21.696H45.6075ZM59.013 24.288C58.257 24.288 57.567 24.168 56.943 23.928C56.331 23.676 55.809 23.316 55.377 22.848C54.945 22.38 54.609 21.816 54.369 21.156C54.129 20.484 54.009 19.722 54.009 18.87V11.112H56.439V19.014C56.439 19.446 56.493 19.842 56.601 20.202C56.709 20.562 56.871 20.874 57.087 21.138C57.303 21.402 57.573 21.612 57.897 21.768C58.221 21.912 58.593 21.984 59.013 21.984C59.445 21.984 59.823 21.912 60.147 21.768C60.471 21.612 60.741 21.402 60.957 21.138C61.173 20.874 61.335 20.562 61.443 20.202C61.551 19.842 61.605 19.446 61.605 19.014V11.112H64.035V18.87C64.035 19.674 63.915 20.412 63.675 21.084C63.447 21.744 63.111 22.314 62.667 22.794C62.235 23.262 61.707 23.628 61.083 23.892C60.471 24.156 59.781 24.288 59.013 24.288ZM66.338 11.112H68.732L72.674 17.934H72.818L76.76 11.112H79.172V24H76.76V17.646L76.904 15.486H76.76L73.484 21.264H72.026L68.732 15.486H68.588L68.732 17.646V24H66.338V11.112ZM81.7716 11.112H86.8116C87.3636 11.112 87.8796 11.202 88.3596 11.382C88.8396 11.55 89.2536 11.79 89.6016 12.102C89.9616 12.402 90.2436 12.756 90.4476 13.164C90.6516 13.572 90.7536 14.01 90.7536 14.478C90.7536 15.162 90.5856 15.738 90.2496 16.206C89.9256 16.662 89.5176 17.01 89.0256 17.25V17.394C89.6856 17.634 90.2136 18.012 90.6096 18.528C91.0176 19.032 91.2216 19.662 91.2216 20.418C91.2216 20.97 91.1076 21.468 90.8796 21.912C90.6636 22.344 90.3636 22.716 89.9796 23.028C89.5956 23.34 89.1456 23.58 88.6296 23.748C88.1256 23.916 87.5796 24 86.9916 24H81.7716V11.112ZM86.6316 16.368C87.1956 16.368 87.6276 16.218 87.9276 15.918C88.2396 15.606 88.3956 15.24 88.3956 14.82C88.3956 14.4 88.2456 14.04 87.9456 13.74C87.6456 13.44 87.2316 13.29 86.7036 13.29H84.2016V16.368H86.6316ZM86.9016 21.768C87.5136 21.768 87.9816 21.618 88.3056 21.318C88.6296 21.006 88.7916 20.61 88.7916 20.13C88.7916 19.65 88.6236 19.254 88.2876 18.942C87.9636 18.618 87.4776 18.456 86.8296 18.456H84.2016V21.768H86.9016Z" fill="#EE4622"/>
<path d="M97.0339 24.288C96.4819 24.288 95.9539 24.21 95.4499 24.054C94.9459 23.898 94.4839 23.664 94.0639 23.352C93.6439 23.04 93.2779 22.662 92.9659 22.218C92.6539 21.762 92.4079 21.234 92.2279 20.634L94.5139 19.734C94.6819 20.382 94.9759 20.922 95.3959 21.354C95.8159 21.774 96.3679 21.984 97.0519 21.984C97.3039 21.984 97.5439 21.954 97.7719 21.894C98.0119 21.822 98.2219 21.726 98.4019 21.606C98.5939 21.474 98.7439 21.312 98.8519 21.12C98.9599 20.928 99.0139 20.706 99.0139 20.454C99.0139 20.214 98.9719 19.998 98.8879 19.806C98.8039 19.614 98.6599 19.434 98.4559 19.266C98.2639 19.098 98.0059 18.936 97.6819 18.78C97.3699 18.624 96.9799 18.462 96.5119 18.294L95.7199 18.006C95.3719 17.886 95.0179 17.724 94.6579 17.52C94.3099 17.316 93.9919 17.07 93.7039 16.782C93.4159 16.494 93.1759 16.158 92.9839 15.774C92.8039 15.378 92.7139 14.934 92.7139 14.442C92.7139 13.938 92.8099 13.47 93.0019 13.038C93.2059 12.594 93.4879 12.21 93.8479 11.886C94.2199 11.55 94.6579 11.292 95.1619 11.112C95.6779 10.92 96.2479 10.824 96.8719 10.824C97.5199 10.824 98.0779 10.914 98.5459 11.094C99.0259 11.262 99.4279 11.484 99.7519 11.76C100.088 12.024 100.358 12.318 100.562 12.642C100.766 12.966 100.916 13.272 101.012 13.56L98.8699 14.46C98.7499 14.1 98.5279 13.776 98.2039 13.488C97.8919 13.2 97.4599 13.056 96.9079 13.056C96.3799 13.056 95.9419 13.182 95.5939 13.434C95.2459 13.674 95.0719 13.992 95.0719 14.388C95.0719 14.772 95.2399 15.102 95.5759 15.378C95.9119 15.642 96.4459 15.9 97.1779 16.152L97.9879 16.422C98.5039 16.602 98.9719 16.812 99.3919 17.052C99.8239 17.28 100.19 17.556 100.49 17.88C100.802 18.204 101.036 18.576 101.192 18.996C101.36 19.404 101.444 19.878 101.444 20.418C101.444 21.09 101.306 21.672 101.03 22.164C100.766 22.644 100.424 23.04 100.004 23.352C99.5839 23.664 99.1099 23.898 98.5819 24.054C98.0539 24.21 97.5379 24.288 97.0339 24.288ZM109.547 24.288C108.587 24.288 107.693 24.114 106.865 23.766C106.049 23.418 105.341 22.944 104.741 22.344C104.141 21.732 103.667 21.018 103.319 20.202C102.983 19.374 102.815 18.492 102.815 17.556C102.815 16.62 102.983 15.744 103.319 14.928C103.667 14.1 104.141 13.386 104.741 12.786C105.341 12.174 106.049 11.694 106.865 11.346C107.693 10.998 108.587 10.824 109.547 10.824C110.507 10.824 111.395 10.998 112.211 11.346C113.039 11.694 113.753 12.174 114.353 12.786C114.953 13.386 115.421 14.1 115.757 14.928C116.105 15.744 116.279 16.62 116.279 17.556C116.279 18.492 116.105 19.374 115.757 20.202C115.421 21.018 114.953 21.732 114.353 22.344C113.753 22.944 113.039 23.418 112.211 23.766C111.395 24.114 110.507 24.288 109.547 24.288ZM109.547 21.984C110.147 21.984 110.705 21.876 111.221 21.66C111.749 21.444 112.205 21.144 112.589 20.76C112.985 20.376 113.291 19.914 113.507 19.374C113.735 18.822 113.849 18.216 113.849 17.556C113.849 16.896 113.735 16.296 113.507 15.756C113.291 15.204 112.985 14.736 112.589 14.352C112.205 13.968 111.749 13.668 111.221 13.452C110.705 13.236 110.147 13.128 109.547 13.128C108.947 13.128 108.383 13.236 107.855 13.452C107.339 13.668 106.883 13.968 106.487 14.352C106.103 14.736 105.797 15.204 105.569 15.756C105.353 16.296 105.245 16.896 105.245 17.556C105.245 18.216 105.353 18.822 105.569 19.374C105.797 19.914 106.103 20.376 106.487 20.76C106.883 21.144 107.339 21.444 107.855 21.66C108.383 21.876 108.947 21.984 109.547 21.984ZM122.962 24.288C122.206 24.288 121.516 24.168 120.892 23.928C120.28 23.676 119.758 23.316 119.326 22.848C118.894 22.38 118.558 21.816 118.318 21.156C118.078 20.484 117.958 19.722 117.958 18.87V11.112H120.388V19.014C120.388 19.446 120.442 19.842 120.55 20.202C120.658 20.562 120.82 20.874 121.036 21.138C121.252 21.402 121.522 21.612 121.846 21.768C122.17 21.912 122.542 21.984 122.962 21.984C123.394 21.984 123.772 21.912 124.096 21.768C124.42 21.612 124.69 21.402 124.906 21.138C125.122 20.874 125.284 20.562 125.392 20.202C125.5 19.842 125.554 19.446 125.554 19.014V11.112H127.984V18.87C127.984 19.674 127.864 20.412 127.624 21.084C127.396 21.744 127.06 22.314 126.616 22.794C126.184 23.262 125.656 23.628 125.032 23.892C124.42 24.156 123.73 24.288 122.962 24.288ZM130.287 11.112H133.113L138.297 19.752H138.441L138.297 17.268V11.112H140.709V24H138.153L132.681 14.874H132.537L132.681 17.358V24H130.287V11.112ZM143.295 11.112H147.651C148.671 11.112 149.589 11.268 150.405 11.58C151.221 11.892 151.917 12.336 152.493 12.912C153.069 13.476 153.507 14.154 153.807 14.946C154.119 15.738 154.275 16.608 154.275 17.556C154.275 18.516 154.119 19.392 153.807 20.184C153.507 20.976 153.069 21.654 152.493 22.218C151.917 22.782 151.221 23.22 150.405 23.532C149.589 23.844 148.671 24 147.651 24H143.295V11.112ZM147.543 21.696C148.251 21.696 148.875 21.6 149.415 21.408C149.955 21.204 150.405 20.922 150.765 20.562C151.125 20.202 151.395 19.77 151.575 19.266C151.755 18.75 151.845 18.18 151.845 17.556C151.845 16.932 151.755 16.368 151.575 15.864C151.395 15.348 151.125 14.91 150.765 14.55C150.405 14.19 149.955 13.914 149.415 13.722C148.875 13.518 148.251 13.416 147.543 13.416H145.725V21.696H147.543Z" fill="white"/>
<path d="M6.76501 4.21075V16.6261C6.75576 17.4066 6.39528 18.1524 5.76195 18.7015C5.12862 19.2505 4.27355 19.5585 3.38251 19.5585C2.49145 19.5585 1.63639 19.2505 1.00306 18.7015C0.369718 18.1524 0.00926658 17.4066 0 16.6261V4.21075C0.000582016 3.42499 0.357429 2.6716 0.992058 2.11628C1.62669 1.56096 2.48713 1.24918 3.38415 1.24952C3.94512 1.24822 4.49741 1.37055 4.99026 1.60526C4.99794 1.60814 5.00123 1.61167 5.00489 1.61167C5.00679 1.61349 5.00939 1.61464 5.01221 1.61487C5.29271 1.74893 5.54913 1.91847 5.77318 2.11803C6.08767 2.39246 6.33715 2.71861 6.50738 3.07774C6.67758 3.43687 6.76512 3.82191 6.76501 4.21075Z" fill="white"/>
<path d="M14.4951 6.89318V19.3054C14.4951 19.6945 14.4076 20.0797 14.2376 20.4392C14.0677 20.7987 13.8185 21.1253 13.5045 21.4004C13.1904 21.6755 12.8175 21.8938 12.4071 22.0427C11.9968 22.1916 11.557 22.2682 11.1128 22.2682C10.6686 22.2682 10.2288 22.1916 9.81844 22.0427C9.40806 21.8938 9.03522 21.6755 8.72113 21.4004C8.40704 21.1253 8.1579 20.7987 7.98792 20.4392C7.81794 20.0797 7.73047 19.6945 7.73047 19.3054V6.89318C7.73036 6.50386 7.81783 6.11832 7.98788 5.75865C8.1579 5.39894 8.40719 5.07212 8.72146 4.79683C9.03573 4.52153 9.40883 4.30316 9.81942 4.15423C10.2301 4.00527 10.6702 3.92865 11.1146 3.92874C11.2354 3.92874 11.3524 3.93515 11.4658 3.94444H11.4735C12.3034 4.02348 13.0707 4.36812 13.6283 4.91223C14.1859 5.45634 14.4946 6.16165 14.4951 6.89286V6.89318Z" fill="#EE4622"/>
<path d="M22.2695 3.36468V15.7801C22.2695 16.5659 21.9132 17.3195 21.2789 17.8751C20.6446 18.4308 19.7842 18.7429 18.8872 18.7429C17.9902 18.7429 17.1299 18.4308 16.4955 17.8751C15.8612 17.3195 15.5049 16.5659 15.5049 15.7801V3.36468C15.5049 2.97553 15.5924 2.5902 15.7626 2.23072C15.9327 1.87124 16.182 1.54465 16.4963 1.26963C16.8106 0.994615 17.1837 0.77656 17.5942 0.627932C18.0048 0.479304 18.4448 0.40302 18.889 0.403441C19.0286 0.402182 19.1681 0.410755 19.3061 0.42908H19.3134C20.0573 0.50792 20.7493 0.803666 21.2781 1.26874C21.5926 1.54381 21.842 1.87052 22.0122 2.23018C22.1823 2.58984 22.2698 2.97536 22.2695 3.36468Z" fill="white"/>
<path d="M30 6.75185V19.1644C30 19.5535 29.9125 19.9387 29.7425 20.2982C29.5725 20.6577 29.3234 20.9843 29.0093 21.2594C28.6953 21.5345 28.3224 21.7528 27.912 21.9017C27.5017 22.0506 27.0618 22.1272 26.6177 22.1272C26.1735 22.1272 25.7337 22.0506 25.3233 21.9017C24.9129 21.7528 24.5401 21.5345 24.226 21.2594C23.9119 20.9843 23.6628 20.6577 23.4928 20.2982C23.3228 19.9387 23.2354 19.5535 23.2354 19.1644V6.75185C23.2353 6.36253 23.3228 5.97706 23.4928 5.61735C23.6629 5.25767 23.9122 4.93085 24.2264 4.65559C24.5407 4.3803 24.9138 4.16195 25.3244 4.01299C25.735 3.86403 26.1751 3.78738 26.6195 3.78741C27.0671 3.78581 27.5103 3.86445 27.9219 4.01847H27.9256C27.9275 4.0203 27.9301 4.02145 27.9329 4.02168C28.3357 4.1691 28.7012 4.38475 29.0085 4.65623C29.3239 4.93062 29.574 5.25719 29.7442 5.61693C29.9144 5.97667 30.0014 6.36243 30 6.75185Z" fill="#EE4622"/>
<g style="mix-blend-mode:multiply" opacity="0.3">
<g style="mix-blend-mode:multiply" opacity="0.3">
<path d="M6.76501 7.78406V16.6261C6.75576 17.4066 6.39528 18.1523 5.76195 18.7014C5.12862 19.2505 4.27355 19.5584 3.38251 19.5584C2.49145 19.5584 1.63639 19.2505 1.00306 18.7014C0.369718 18.1523 0.00926658 17.4066 0 16.6261V16.1165C0 16.1165 0.0073176 16.1899 0.0219518 16.3245C0.0292689 16.4623 0.05122 16.6646 0.0881713 16.911C0.150501 17.2047 0.258712 17.4895 0.409757 17.7574C0.676816 18.2332 1.09265 18.6328 1.60885 18.9097C2.12505 19.1865 2.7204 19.3293 3.32562 19.3213C3.60009 19.3188 3.87305 19.2854 4.13781 19.222C4.69713 19.084 5.20143 18.8121 5.59391 18.4368C5.99584 18.055 6.2605 17.5779 6.35489 17.0652C6.36221 17.0011 6.3805 16.9498 6.38416 16.8761L6.39916 16.6581C6.40611 16.546 6.40245 16.3761 6.40611 16.2383C6.40611 15.9499 6.40977 15.6582 6.41343 15.373C6.41343 14.7994 6.43538 14.2353 6.44306 13.6873C6.46831 12.5945 6.50855 11.575 6.55611 10.7004C6.64428 8.9506 6.76501 7.78406 6.76501 7.78406Z" fill="black"/>
</g>
</g>
<g style="mix-blend-mode:overlay" opacity="0.6">
<g style="mix-blend-mode:overlay" opacity="0.6">
<path d="M5.00525 1.61167C4.87805 1.57535 4.74857 1.54539 4.61745 1.52194C4.27943 1.45331 3.93235 1.42528 3.58574 1.43861C3.47674 1.44218 3.3681 1.45181 3.26049 1.46746C3.14715 1.47966 3.03475 1.49786 2.92391 1.52194C2.16918 1.67147 1.49608 2.04373 1.01744 2.57632C0.850586 2.75541 0.710438 2.95238 0.600367 3.16247C0.495283 3.36589 0.415556 3.57863 0.362562 3.79702C0.335648 3.90813 0.315981 4.02046 0.303658 4.13353L0.292683 4.22006C0.292683 4.22326 0.289025 4.27133 0.285366 4.29377C0.281707 4.35145 0.27805 4.40914 0.271098 4.46362C0.256098 4.68796 0.230488 4.89947 0.208537 5.09497C0.163961 5.53146 0.0943604 5.96574 0 6.39611V4.21044C0.000675506 3.69639 0.153928 3.19136 0.444714 2.74488C0.735499 2.29839 1.15382 1.92582 1.65863 1.66372C2.16343 1.40162 2.73736 1.25901 3.32408 1.24989C3.9108 1.24076 4.49013 1.36544 5.00525 1.61167Z" fill="white"/>
</g>
</g>
<g style="mix-blend-mode:multiply" opacity="0.3">
<g style="mix-blend-mode:multiply" opacity="0.3">
<path d="M14.4951 10.4534V19.3053C14.4951 19.6944 14.4076 20.0797 14.2376 20.4392C14.0677 20.7987 13.8185 21.1253 13.5045 21.4004C13.1904 21.6755 12.8175 21.8937 12.4071 22.0427C11.9968 22.1916 11.557 22.2682 11.1128 22.2682C10.6686 22.2682 10.2288 22.1916 9.81844 22.0427C9.40806 21.8937 9.03522 21.6755 8.72113 21.4004C8.40704 21.1253 8.1579 20.7987 7.98792 20.4392C7.81794 20.0797 7.73047 19.6944 7.73047 19.3053V18.9464C7.73047 18.9464 7.73779 19.0201 7.75242 19.1544C7.76537 19.3485 7.79596 19.5414 7.84388 19.7313C8.0091 20.3912 8.42907 20.981 9.03291 21.4013C9.42419 21.6712 9.88107 21.8587 10.3683 21.9493C10.4928 21.9714 10.6186 21.9874 10.7451 21.9974C10.8839 22.0057 11.0231 22.0079 11.1622 22.0038C11.4378 21.9906 11.7106 21.9485 11.9747 21.8785C12.522 21.7213 13.01 21.4365 13.3866 21.0548C13.7728 20.6666 14.0197 20.1873 14.0963 19.6768C14.1179 19.5451 14.1301 19.4124 14.1329 19.2794L14.1366 18.8464C14.1366 18.558 14.1402 18.2696 14.1443 17.9846C14.1443 17.4174 14.1658 16.8566 14.1735 16.3117C14.1988 15.2282 14.239 14.2158 14.2866 13.3473C14.3744 11.6106 14.4951 10.4534 14.4951 10.4534Z" fill="black"/>
</g>
</g>
<g style="mix-blend-mode:overlay" opacity="0.6">
<g style="mix-blend-mode:overlay" opacity="0.6">
<path d="M11.4658 3.94444C11.4329 3.95118 11.3049 3.9672 11.1036 3.99284C10.9902 4.01848 10.8516 4.0377 10.7012 4.07616C10.5334 4.11907 10.3685 4.17032 10.2073 4.22967C10.0224 4.3013 9.84383 4.38498 9.67315 4.47997C9.48884 4.58691 9.31396 4.70581 9.14998 4.8357C8.98257 4.9779 8.83067 5.13346 8.69632 5.3004C8.55807 5.46974 8.44034 5.65126 8.3451 5.84201C8.25232 6.03301 8.18135 6.23161 8.13327 6.43489C8.10873 6.53652 8.09029 6.63923 8.07803 6.74256L8.05974 6.89606L8.05242 7.06304C8.02681 7.50209 7.98657 7.91199 7.93901 8.26483C7.89444 8.65999 7.82482 9.05264 7.73047 9.441V6.89318C7.73036 6.50386 7.81783 6.11832 7.98788 5.75865C8.1579 5.39894 8.40719 5.07212 8.72146 4.79683C9.03573 4.52153 9.40883 4.30316 9.81942 4.15423C10.2301 4.00527 10.6702 3.92865 11.1146 3.92874C11.2354 3.92874 11.3524 3.93515 11.4658 3.94444Z" fill="white"/>
</g>
</g>
<g style="mix-blend-mode:multiply" opacity="0.3">
<g style="mix-blend-mode:multiply" opacity="0.3">
<path d="M22.2695 4.63382V15.7801C22.2695 16.5659 21.9132 17.3195 21.2789 17.8752C20.6446 18.4308 19.7842 18.7429 18.8872 18.7429C17.9902 18.7429 17.1299 18.4308 16.4955 17.8752C15.8612 17.3195 15.5049 16.5659 15.5049 15.7801V15.5301C15.5049 15.5301 15.5122 15.6103 15.5268 15.7609C15.5467 15.9765 15.5895 16.19 15.6549 16.3986C15.7601 16.7165 15.9259 17.0165 16.1451 17.286C16.4203 17.6302 16.7788 17.917 17.1951 18.1257C17.6784 18.3715 18.2278 18.4999 18.7866 18.4978C19.0828 18.5007 19.3778 18.4639 19.6614 18.3888C19.9597 18.3163 20.2436 18.2038 20.5028 18.0555C21.0422 17.7452 21.4588 17.2963 21.6955 16.7704L21.7797 16.5717L21.8382 16.3631C21.8601 16.2928 21.8638 16.2255 21.8784 16.1583C21.8941 16.0854 21.9015 16.0113 21.9004 15.9371C21.9187 15.6487 21.9004 15.2994 21.904 14.9853C21.9077 14.338 21.9114 13.6906 21.9187 13.0528C21.9187 12.415 21.9406 11.7901 21.9479 11.1844C21.9736 9.96981 22.0138 8.83848 22.0614 7.86743C22.1488 5.92532 22.2695 4.63382 22.2695 4.63382Z" fill="black"/>
</g>
</g>
<g style="mix-blend-mode:overlay" opacity="0.6">
<g style="mix-blend-mode:overlay" opacity="0.6">
<path d="M19.3061 0.42908C19.2585 0.435489 19.1378 0.451513 18.9585 0.470742C18.8488 0.477152 18.7061 0.518493 18.5524 0.540927C18.3839 0.581685 18.2178 0.629926 18.0549 0.685463C17.8679 0.753742 17.6869 0.834083 17.5134 0.925824C17.3242 1.02718 17.1456 1.143 16.9796 1.27194C16.8915 1.33604 16.8146 1.41295 16.7345 1.48346C16.6613 1.56678 16.5768 1.64017 16.511 1.72702C16.368 1.89416 16.2465 2.07462 16.1488 2.26511C16.0478 2.45388 15.9705 2.65171 15.9183 2.85511C15.9037 2.95767 15.8671 3.03458 15.8561 3.15636L15.8378 3.32269L15.8342 3.36468V3.36788L15.8305 3.37076V3.39352L15.8268 3.47684C15.8012 3.91911 15.761 4.32932 15.7134 4.68185C15.669 5.07806 15.5993 5.4718 15.5049 5.86122V3.36468C15.5049 2.97553 15.5924 2.5902 15.7626 2.23072C15.9327 1.87124 16.182 1.54465 16.4963 1.26963C16.8106 0.994615 17.1837 0.77656 17.5942 0.627932C18.0048 0.479304 18.4448 0.40302 18.889 0.403441C19.0286 0.402182 19.1681 0.410755 19.3061 0.42908Z" fill="white"/>
</g>
</g>
<g style="mix-blend-mode:overlay" opacity="0.6">
<g style="mix-blend-mode:overlay" opacity="0.6">
<path d="M27.9219 4.01847C27.889 4.01174 27.7573 3.98931 27.5488 3.9672C27.428 3.95438 27.2817 3.94765 27.1171 3.94444C26.9336 3.94383 26.7503 3.95358 26.5683 3.97361C26.3582 4.00101 26.1504 4.04052 25.9463 4.09186C25.7264 4.15401 25.5133 4.23348 25.3097 4.32934C24.8747 4.53788 24.4966 4.82653 24.2012 5.17541C24.0501 5.35004 23.9225 5.53928 23.8207 5.73945C23.7227 5.93299 23.6479 6.13489 23.5975 6.34195C23.5702 6.44637 23.5518 6.55241 23.5427 6.65923L23.5317 6.73935L23.528 6.75537L23.5244 6.76787L23.5207 6.80986C23.5171 6.86434 23.5134 6.91561 23.5097 6.9701C23.4915 7.18161 23.4695 7.38351 23.4439 7.56619C23.3995 7.98044 23.3299 8.39229 23.2354 8.80004V6.75185C23.2353 6.36253 23.3228 5.97706 23.4928 5.61735C23.6629 5.25767 23.9122 4.93085 24.2264 4.65559C24.5407 4.3803 24.9138 4.16195 25.3244 4.01299C25.735 3.86403 26.1751 3.78738 26.6195 3.78741C27.0671 3.78581 27.5103 3.86445 27.9219 4.01847Z" fill="white"/>
</g>
</g>
<g style="mix-blend-mode:multiply" opacity="0.3">
<g style="mix-blend-mode:multiply" opacity="0.3">
<path d="M30 11.2036V19.1644C30 19.5534 29.9125 19.9387 29.7425 20.2982C29.5725 20.6576 29.3234 20.9843 29.0093 21.2594C28.6953 21.5345 28.3224 21.7528 27.912 21.9016C27.5017 22.0505 27.0618 22.1272 26.6177 22.1272C26.1735 22.1272 25.7337 22.0505 25.3233 21.9016C24.9129 21.7528 24.5401 21.5345 24.226 21.2594C23.9119 20.9843 23.6628 20.6576 23.4928 20.2982C23.3228 19.9387 23.2354 19.5534 23.2354 19.1644C23.2354 19.1644 23.2463 19.2317 23.2683 19.3599C23.2775 19.4358 23.2946 19.5109 23.3195 19.5842C23.3421 19.6856 23.3739 19.7852 23.4146 19.8822C23.6002 20.3739 23.9324 20.8132 24.3769 21.1547C24.8214 21.4961 25.362 21.7273 25.9427 21.8243C26.0634 21.8436 26.1768 21.85 26.2976 21.8628L26.5024 21.866H26.6378L26.6854 21.8596C26.9434 21.8478 27.1988 21.8091 27.4463 21.7442C27.958 21.6054 28.4204 21.3537 28.789 21.0132C28.9769 20.8383 29.1391 20.6436 29.272 20.4335C29.398 20.2205 29.4927 19.9943 29.5537 19.7605C29.5863 19.6467 29.6095 19.531 29.6232 19.4143L29.6378 19.2156V19.1644L29.6415 19.1288V19.0297C29.6415 18.7605 29.6451 18.491 29.6488 18.2254C29.6488 17.6966 29.6707 17.171 29.678 16.6678C29.7037 15.6551 29.7439 14.7097 29.7915 13.9021C29.8793 12.2801 30 11.2036 30 11.2036Z" fill="black"/>
</g>
</g>
</svg>
