<svg width="35" height="35" viewBox="0 0 35 35" fill="none" xmlns="http://www.w3.org/2000/svg">
<path d="M17.5 0C7.835 0 0 7.835 0 17.5C0 27.1649 7.835 34.9999 17.5 34.9999C27.1649 34.9999 34.9999 27.1649 34.9999 17.5C34.9897 7.83933 27.1607 0.0103271 17.5 0ZM24.8699 18.0576C24.7487 18.3006 24.5518 18.4976 24.3087 18.6187V18.625L14.3087 23.625C13.6912 23.9336 12.9404 23.6831 12.6318 23.0656C12.544 22.89 12.4988 22.6962 12.4999 22.5V12.5C12.4996 11.8096 13.059 11.2498 13.7494 11.2494C13.9435 11.2493 14.1351 11.2944 14.3087 11.3812L24.3087 16.3813C24.9266 16.6892 25.1779 17.4397 24.8699 18.0576Z" fill="white"/>
</svg>
